<svg xmlns="http://www.w3.org/2000/svg" viewBox="0 0 560 560" fill="none" shape-rendering="auto" aria-hidden="true"><!-- Generated by DiceBear (https://www.dicebear.com) --><metadata xmlns:rdf="http://www.w3.org/1999/02/22-rdf-syntax-ns#" xmlns:xsi="http://www.w3.org/2001/XMLSchema-instance" xmlns:dc="http://purl.org/dc/elements/1.1/" xmlns:dcterms="http://purl.org/dc/terms/"><rdf:RDF><rdf:Description><dc:title>Notionists</dc:title><dc:creator>Zoish</dc:creator><dc:source xsi:type="dcterms:URI">https://heyzoish.gumroad.com/l/notionists</dc:source><dcterms:license xsi:type="dcterms:URI">https://creativecommons.org/publicdomain/zero/1.0/</dcterms:license><dc:rights>Remix of “Notionists” (https://heyzoish.gumroad.com/l/notionists) by “Zoish”, licensed under “CC0 1.0” (https://creativecommons.org/publicdomain/zero/1.0/)</dc:rights></rdf:Description></rdf:RDF></metadata><defs><g id="mouth-variant29-bd97ddc6"><path d="M141.7 78c-3.2 7-5.7 14.2-6.1 22-.2 4.6.8 9.8 6 11.6 5.4 1.9 9.1-1 12.8-5.6a39 39 0 0 0 7.5-25.1c0-5 1.3-11.8-6.1-13.7-7.6-2-10.7 3.1-14 10.7" fill="#ffffff"/><path fill-rule="evenodd" clip-rule="evenodd" d="M140.4 58.5c-14.9 15-17.2 33.4-14.1 54.3 5.4 10.8 14 11.2 23.4 9.9 21.3-2.9 39.6-34.7 26-58.5-9.4-16.3-22-19-35.3-5.7m-4.8 41.4c.4-7.7 2.9-15 6.1-22 3.4-7.6 6.5-12.7 14-10.7 6.7 1.7 6.4 7.3 6.3 12v1.7a39 39 0 0 1-7.6 25.1c-3.7 4.6-7.4 7.5-12.8 5.6-5.2-1.8-6.2-7-6-11.7" fill="#000000"/></g><g id="nose-variant17-bd97ddc6"><path d="M41.2 196.6c-5.4-4.8-10.2-9.4-5.5-15.8 5-6.7 9.8.1 14.7 1.4 3.2.9 5.6 4.4 9.3 3.3 6.5-1.8 14-2.5 15-11.4.8-8.5-6-10.5-11.7-13.1-4.4-2-13 1-11.3-8 1.5-8.3 9.1-7.7 15.6-7.1a25 25 0 0 1 24 25c.5 16.2-8.4 28.5-23.3 30-8.7 1-18 2-26.8-4.3" fill="#000000"/></g><g id="eyes-variant04-bd97ddc6"><path d="M212.2 70q19.4.3 37.6 2.4c3 .4 5 3.3 5 6.7q-.1 5-4.7 7c-11.2 4.8-22 8.2-33.7.2-6.5-4.5-9-8.7-4.2-16.4M52.4 64.4c7 0 7.8 3.8 7 8.5-2 10.2-20 22.4-30.4 20.5-5.9-1-10.5-4-10.7-10.5-.2-6.7 4.8-8.2 10.3-8.4 9-.3 15.8-5.2 23.8-10M20 24c5-12 8.8-29.4 24-22.5C64.7 11 58 32.2 53.7 49 52 55.2 39.2 64.8 35.4 63.2 19.1 56.4 16.2 41.5 20 24m226.8 36.8c-8.6 7.5-17 7.6-22.2-1.5-9-16-8.6-32.8 3.3-47.2 2.5-3 13.8-3.6 16.3-1q20.8 22.7 2.6 49.7" fill="#000000"/></g><g id="glasses-variant10-bd97ddc6"><path d="M265.7 17a80 80 0 0 1 35.1 44.7c15.8-3 30.7-5.8 46.4 2.2A98 98 0 0 1 367 29.2C382.5 13 417.7.8 443.2 9.4c26.2 8.8 44.9 26.2 52.7 51.2a76 76 0 0 1-11.3 67.8c-35.8 51-110.3 37.5-132.4-14q-5.4-12.4-6.3-25.8c-.6-10.5-5.3-15.8-15-17.3-11.9-1.8-21.2 1.8-25.4 13.9-3.3 9.1-3.2 19-7.4 28.2-13.3 29-37.9 47.4-71.8 47.1-28.5-.2-61.4-18-69-48.8-8.4-34-35.5-41.3-62.4-50.6l-68.2-24c-4.7-1.7-7.3-5.4-5.5-10 2.2-5.7 6.8-3.4 10.8-2 34 12.6 68.4 24.8 102.4 37.6 11.8 4.4 18.4-3.2 22.6-10.7 23.3-42.4 58.4-55.5 103-37.2 1.7.6 3.3 1.2 5.7 2.3" fill="#000000"/></g><g id="eyebrows-variant05-bd97ddc6"><path d="M106.5 34.6c4.3 5.6 14.4 8.2 8.3 16.8-5.8 8.2-15.6 8.7-24.3 6.4q-14.3-3.5-27.1-10.6c-12.1-7-23.1-6.2-34.8.2-6.5 3.6-16 9.8-20.4 1.9-5-9.2 7-11.4 12.8-15.4 18-12.8 38.8-14 60-12.2 9.6.8 16.7 7.7 25.5 13m123.7 9.5c15.9-7.4 30.7-14.8 48.2-12.7a48 48 0 0 1 30 15.2c2.9 3.1 5 7.5 1.4 11.4-3.6 3.7-8.6 4.5-12.5.4-10-10.7-20.3-8.4-30.7-1.4-9 6.1-19.6 5.5-29.4 6.4-10.7 1-13.4-6.6-7-19.3" fill="#000000"/></g><clipPath id="clip-bd97ddc6"><rect width="560" height="560" rx="0" ry="0"/></clipPath></defs><g clip-path="url(#clip-bd97ddc6)"><rect width="560" height="560" fill="#ffffff"/><use transform="translate(136 329)" href="#mouth-variant29-bd97ddc6"/><use transform="translate(246 126)" href="#nose-variant17-bd97ddc6"/><use transform="translate(150.2 189.6)" href="#eyes-variant04-bd97ddc6"/><use transform="translate(-44.7 138.1)" href="#glasses-variant10-bd97ddc6"/><use transform="translate(120 114)" href="#eyebrows-variant05-bd97ddc6"/></g></svg>