<svg xmlns="http://www.w3.org/2000/svg" viewBox="0 0 560 560" fill="none" shape-rendering="auto" aria-hidden="true"><!-- Generated by DiceBear (https://www.dicebear.com) --><metadata xmlns:rdf="http://www.w3.org/1999/02/22-rdf-syntax-ns#" xmlns:xsi="http://www.w3.org/2001/XMLSchema-instance" xmlns:dc="http://purl.org/dc/elements/1.1/" xmlns:dcterms="http://purl.org/dc/terms/"><rdf:RDF><rdf:Description><dc:title>Notionists</dc:title><dc:creator>Zoish</dc:creator><dc:source xsi:type="dcterms:URI">https://heyzoish.gumroad.com/l/notionists</dc:source><dcterms:license xsi:type="dcterms:URI">https://creativecommons.org/publicdomain/zero/1.0/</dcterms:license><dc:rights>Remix of “Notionists” (https://heyzoish.gumroad.com/l/notionists) by “Zoish”, licensed under “CC0 1.0” (https://creativecommons.org/publicdomain/zero/1.0/)</dc:rights></rdf:Description></rdf:RDF></metadata><defs><g id="mouth-variant04-7923c7da"><path d="M130.4 83.6a47 47 0 0 1 28.5-7.8c6.2.5 10.7 3.5 11 9.9.3 7.4-5.7 7-10.8 7.1h-24c-5.5-.3-7.8-3-4.7-9.2" fill="#000000"/></g><g id="nose-variant04-7923c7da"><path d="M82 56.5a359 359 0 0 1 13.8-16.2c2.5-2.8 6-4 9-1.2 3.5 3 1.3 5.8-.8 8.8-8 11.5-18 21.2-23.5 34.5a43 43 0 0 0-2.3 29.6c5.8 19.9 10.5 40 15.1 60.2q4.8 21.4-16 29-6 2.3-11.7 5c-16.4 8-30.4 1.5-44.4-8.6 3.8-8 9.6-10.7 18.5-5.7 8.7 5 32.7.6 39.6-6.8 4.5-5 1.4-9.7 0-14.4-5.8-19.7-14-38.7-15.6-59.8a69 69 0 0 1 18.4-54.4" fill="#000000"/></g><g id="eyes-variant03-7923c7da"><path d="M214 23q19.4.5 37.7 2.6c3 .3 4.9 3.3 5 6.6q-.1 5-4.8 7c-11.1 4.9-22 8.3-33.7.2-6.5-4.4-8.9-8.6-4.2-16.3M59.5 25.8c6.2 3.3 5.2 7 2.1 10.8-6.5 8-28.2 10-36.4 3.5-4.7-3.8-7.3-8.6-4.4-14.4 3-6 8.2-5 13-2.5 8 4 16.4 3 25.7 2.6" fill="#000000"/></g><g id="eyebrows-variant10-7923c7da"><path d="M103.9 38.7C81.4 47 59.2 43 37.3 43c-3 0-6.3-2.2-9.2-4-2.7-1.5-4.4-4-3-7.4q2.1-5.4 8-4.5a188 188 0 0 0 79.9-7c5-1.6 13.3-8 16.2 1.6 3 10.2-6.8 10.8-13.4 13zm155.6-5.6c-7.2 2.7-13.5 5.3-19.9 7.6-2.4.8-5.1.9-6.8-1.8-1.6-2.4-1-4.4.5-7 13.4-22 56.2-24.9 71-4.4q2.8 3.6 4.2 7.8c1.3 4.1 2.4 9.2-2.2 11.5-4.3 2.2-7.7-1.1-10.7-4.5-14-15.5-17-16.3-36-9.2" fill="#000000"/></g><clipPath id="clip-7923c7da"><rect width="560" height="560" rx="0" ry="0"/></clipPath></defs><g clip-path="url(#clip-7923c7da)"><rect width="560" height="560" fill="#ffffff"/><use transform="translate(136 329)" href="#mouth-variant04-7923c7da"/><use transform="translate(246 126)" href="#nose-variant04-7923c7da"/><use transform="translate(150.2 189.6)" href="#eyes-variant03-7923c7da"/><use transform="translate(120 114)" href="#eyebrows-variant10-7923c7da"/></g></svg>