<svg xmlns="http://www.w3.org/2000/svg" viewBox="0 0 560 560" fill="none" shape-rendering="auto" aria-hidden="true"><!-- Generated by DiceBear (https://www.dicebear.com) --><metadata xmlns:rdf="http://www.w3.org/1999/02/22-rdf-syntax-ns#" xmlns:xsi="http://www.w3.org/2001/XMLSchema-instance" xmlns:dc="http://purl.org/dc/elements/1.1/" xmlns:dcterms="http://purl.org/dc/terms/"><rdf:RDF><rdf:Description><dc:title>Notionists</dc:title><dc:creator>Zoish</dc:creator><dc:source xsi:type="dcterms:URI">https://heyzoish.gumroad.com/l/notionists</dc:source><dcterms:license xsi:type="dcterms:URI">https://creativecommons.org/publicdomain/zero/1.0/</dcterms:license><dc:rights>Remix of “Notionists” (https://heyzoish.gumroad.com/l/notionists) by “Zoish”, licensed under “CC0 1.0” (https://creativecommons.org/publicdomain/zero/1.0/)</dc:rights></rdf:Description></rdf:RDF></metadata><defs><g id="mouth-variant19-c9a6fb34"><path d="M169.6 95c-10.4-12.4-20.6-23-37.9-20.7a5 5 0 0 1-5.6-4.2c-.5-2.8 1.1-4.7 3.2-6.5 7.8-6.8 22-6.8 34.6.3 11 6 18.7 19.7 16.9 29.4-1.7 8.6-5.8 6.7-11.2 1.7" fill="#000000"/></g><g id="nose-variant10-c9a6fb34"><path d="M69.4 95c-.6-14.1-4.3-27.2.4-40.1 1.2-3.3 1.2-8.6 6.7-8 5.5.8 4.5 5.6 4 9.2-4.6 30.7 7 58.6 15 87 2.7 9.3 6.6 18.2 6.1 28.4-.8 16.4-11.3 26.4-27.4 23.6a30 30 0 0 0-17.2 1.8c-14 5.6-26-5-39.6-5.3-4 0-6.6-7.3-7-12.7 0-2.5.4-5.2 3.5-6 2-.8 4.4.2 5.3 2.2 3.6 7 9.3 3.3 14.4 4.2 11.9 2 23 1.3 34.8.9 5.8-.3 11.7 3.3 17.2-1.7 5.8-5.2 4-11.3 2.2-17.6C81.7 139.3 72 118.7 69.4 95" fill="#000000"/></g><g id="eyes-variant03-c9a6fb34"><path d="M214 23q19.4.5 37.7 2.6c3 .3 4.9 3.3 5 6.6q-.1 5-4.8 7c-11.1 4.9-22 8.3-33.7.2-6.5-4.4-8.9-8.6-4.2-16.3M59.5 25.8c6.2 3.3 5.2 7 2.1 10.8-6.5 8-28.2 10-36.4 3.5-4.7-3.8-7.3-8.6-4.4-14.4 3-6 8.2-5 13-2.5 8 4 16.4 3 25.7 2.6" fill="#000000"/></g><g id="eyebrows-variant01-c9a6fb34"><path d="M294 29.6c2.6 7.3 5.5 13.5 7 20 1.2 4.9 1.7 10.4-5 12.6-7.6 2.6-8.6-3.4-10.6-7.8a120 120 0 0 1-5.5-14.2c-1.5-4.9-4.3-7-9.4-6.8-5 .1-8 3-9.3 7.2q-2.5 8-4 16.1c-1 4.5-4.2 4.8-7.8 4.6q-5.2-.2-5.9-5.5c-3.2-20.1 6.1-38.2 25.9-41.2 12.2-2 19 4.5 24.5 15M49.6 33C64.7 12.5 79 8.5 93.6 21.7c9.1 8.3 8.7 21.2 10.7 32.6.5 3-2 5.7-5.3 6.3-3.5.7-7-1.2-8.4-4.4-1.7-4-2.2-8.3-3.6-12.2-1.7-4.8-3.2-10-9.7-10.5s-10.6 3-13.2 8c-3.6 7.2-4.8 20-15.7 14.7-10.4-5-1.9-14.7 1.2-23.2" fill="#000000"/></g><clipPath id="clip-c9a6fb34"><rect width="560" height="560" rx="0" ry="0"/></clipPath></defs><g clip-path="url(#clip-c9a6fb34)"><rect width="560" height="560" fill="#ffffff"/><use transform="translate(136 329)" href="#mouth-variant19-c9a6fb34"/><use transform="translate(246 126)" href="#nose-variant10-c9a6fb34"/><use transform="translate(150.2 189.6)" href="#eyes-variant03-c9a6fb34"/><use transform="translate(120 114)" href="#eyebrows-variant01-c9a6fb34"/></g></svg>